PathFileType  4	(X/Y/Z) C:\Users\antoi\Documents\MyRepositories\mobilecap\ResultsAnalysis
DataRate	CameraRate	NumFrames	NumMarkers	Units	OrigDataRate	OrigDataStartFrame	OrigNumFrames
100.0	100.0	5	51	mm	100.0	214	341
Frame#	Time	r_knee			r_shank_antsup			r_ankle			r_calc			r_5meta			r_toe			L_knee			L_shank_antsup			L_ankle			L_calc			L_5meta			L_toe			r_sh2			r_sh3			r_sh4			L_sh2			L_sh3			r_thigh1			r_thigh2			r_thigh3			r_thigh4			r_thigh5			L_thigh1			L_thigh2			L_thigh3			L_thigh4			r.ASIS			r.PSIS			L.ASIS			L.PSIS			C7			R_Shoulder			L_Shoulder			R_Sternum			L_Sternum			R_humerus			R_elbow_med			R_elbow_lat			R_forearm			R_wrist_radius			R_wrist_ulna			L_humerus			L_elbow_med			L_elbow_lat			L_forearm			L_wrist_radius			L_wrist_ulna			R_HJC			L_HJC			R_HJC_reg			L_HJC_reg			
		X1	Y1	Z1	X2	Y2	Z2	X3	Y3	Z3	X4	Y4	Z4	X5	Y5	Z5	X6	Y6	Z6	X7	Y7	Z7	X8	Y8	Z8	X9	Y9	Z9	X10	Y10	Z10	X11	Y11	Z11	X12	Y12	Z12	X13	Y13	Z13	X14	Y14	Z14	X15	Y15	Z15	X16	Y16	Z16	X17	Y17	Z17	X18	Y18	Z18	X19	Y19	Z19	X20	Y20	Z20	X21	Y21	Z21	X22	Y22	Z22	X23	Y23	Z23	X24	Y24	Z24	X25	Y25	Z25	X26	Y26	Z26	X27	Y27	Z27	X28	Y28	Z28	X29	Y29	Z29	X30	Y30	Z30	X31	Y31	Z31	X32	Y32	Z32	X33	Y33	Z33	X34	Y34	Z34	X35	Y35	Z35	X36	Y36	Z36	X37	Y37	Z37	X38	Y38	Z38	X39	Y39	Z39	X40	Y40	Z40	X41	Y41	Z41	X42	Y42	Z42	X43	Y43	Z43	X44	Y44	Z44	X45	Y45	Z45	X46	Y46	Z46	X47	Y47	Z47	X48	Y48	Z48	X49	Y49	Z49	X50	Y50	Z50	X51	Y51	Z51	

214	2.13000000	-423.39284	774.44995	-386.32310	-446.67660	727.91364	-356.12667	-420.18356	367.14906	-383.26440	-477.69932	351.40781	-440.37428	-316.61382	263.44493	-356.28534	-265.52436	286.57744	-401.27104	-431.36041	759.31471	-758.24667	-392.89396	681.57370	-774.94796	-410.76203	355.61539	-753.51190	-471.84285	333.48069	-700.76091	-305.07138	256.10784	-767.29030	-259.80587	275.36716	-717.13065	-437.92102	612.07284	-344.38350	-375.31612	733.53161	-386.23297	-367.28019	618.71358	-387.88883	-480.16193	682.84424	-783.24617	-468.32857	561.29432	-786.68341	-468.27199	1062.62556	-483.59410	-412.16329	970.40672	-460.19869	-419.19233	953.93625	-394.40421	-522.04849	1053.48371	-386.30702	-469.81445	953.63093	-367.06281	-513.86150	1070.91297	-752.61868	-461.40986	940.02222	-772.05400	-617.44630	1030.90343	-765.40173	-569.26745	898.84811	-753.23779	-511.38854	1195.61845	-456.55178	-688.48423	1248.60364	-539.64202	-506.53779	1173.62123	-686.24743	-686.57637	1245.93865	-636.27537	-456.02433	1678.58868	-585.27391	-403.95396	1616.52038	-424.02942	-407.90472	1608.81438	-735.49793	-401.90907	1539.24532	-575.11363	-393.19260	1547.05639	-590.39061	-491.70482	1431.24327	-288.52708	-577.02832	1344.44604	-302.81514	-542.73079	1361.79187	-244.16306	-421.68068	1283.77879	-243.90749	-338.03727	1234.53172	-273.29018	-349.86318	1214.51758	-235.31101	-490.39704	1422.47974	-869.64549	-572.93963	1323.67824	-850.10116	-543.56068	1335.88678	-910.19443	-423.80537	1248.56744	-886.33442	-339.19957	1201.10208	-838.98494	-361.06184	1165.93561	-859.36007	-594.35827	1122.59894	-486.69772	-599.09635	1117.62037	-677.24488	-587.28798	1126.73447	-487.83816	-584.28191	1122.53634	-640.07739	
215	2.14000000	-414.36456	753.14004	-385.33776	-437.34218	706.03547	-355.49334	-402.70388	345.92183	-380.99127	-459.75209	328.90256	-438.21781	-297.54520	244.19057	-352.73002	-246.75685	267.62150	-397.77250	-420.01573	738.51147	-759.95133	-380.29260	661.88625	-776.45319	-390.27302	335.32164	-756.07882	-450.78480	312.56512	-703.84207	-283.00664	236.92044	-770.09307	-238.15132	256.45859	-719.69218	-426.92888	590.14276	-343.76270	-366.04982	713.05218	-384.99734	-355.27094	598.45814	-386.04176	-467.52277	660.92832	-784.99324	-452.48358	539.71771	-788.77767	-454.07976	1042.14034	-482.59091	-400.18336	948.40722	-459.71849	-407.93459	932.04329	-393.62583	-508.84320	1033.49547	-386.32298	-458.67722	932.72051	-366.53926	-499.10555	1050.91508	-751.75776	-447.74535	919.68306	-771.47951	-602.95349	1012.00114	-765.51552	-556.03338	879.38145	-754.06027	-498.06188	1177.78107	-456.20797	-675.86981	1228.32555	-539.70190	-492.62882	1156.47275	-685.46371	-673.86021	1225.48516	-636.57878	-449.33454	1661.40415	-585.37079	-396.87139	1600.55377	-424.54585	-400.88756	1592.96432	-735.41294	-393.45059	1523.16755	-575.18264	-385.38762	1530.04216	-589.82251	-487.03200	1417.06628	-288.18857	-572.93861	1330.64482	-302.66236	-539.05876	1348.27372	-243.93136	-418.13671	1270.38622	-242.53926	-334.12796	1221.18720	-271.35150	-346.20090	1201.33463	-233.34202	-485.28697	1408.36142	-870.65402	-568.62490	1309.95603	-851.27577	-539.58269	1322.43914	-911.50928	-419.81997	1234.83786	-889.10247	-335.05537	1187.10697	-842.81298	-356.77459	1151.77369	-862.47820	-579.97922	1103.63202	-486.60210	-584.10177	1098.80483	-677.16723	-572.93039	1108.53851	-487.37170	-569.77960	1104.08536	-639.27684	
216	2.15000000	-404.62788	731.14923	-384.38342	-427.14685	683.45011	-354.67442	-386.65364	324.13917	-378.89651	-442.97938	305.92849	-436.37216	-279.93380	224.14955	-349.28658	-229.44894	247.88595	-394.14390	-408.07805	716.87174	-762.07704	-367.38568	641.09135	-777.76523	-370.73649	314.61206	-758.78216	-430.95474	291.03554	-706.82017	-262.30376	216.99226	-772.98112	-217.76668	236.74324	-722.39497	-415.39873	567.76241	-343.02467	-355.95557	691.57354	-383.98165	-343.29480	577.15338	-384.36304	-454.62420	638.45238	-786.82327	-436.82414	517.66811	-790.87044	-439.64241	1021.40736	-481.16320	-387.99187	925.87008	-459.06880	-396.21553	909.75729	-392.95294	-495.42819	1012.93420	-386.38846	-446.86634	911.40689	-366.22650	-484.09504	1029.98206	-751.09318	-433.84159	898.33685	-770.72149	-588.18057	992.07145	-765.80404	-542.48493	858.94228	-754.96048	-484.78289	1159.04010	-455.72892	-663.24977	1206.96215	-539.86238	-478.71465	1138.03565	-684.60671	-661.01658	1203.97167	-637.00711	-442.86947	1643.08411	-585.09364	-390.10580	1583.60466	-425.22414	-394.11241	1575.90428	-735.30137	-385.11095	1505.84467	-575.25913	-377.24336	1512.16728	-589.87421	-482.27088	1401.87390	-287.88920	-568.48524	1315.58714	-302.46976	-535.21834	1333.41007	-243.88371	-413.95530	1256.40948	-241.39629	-329.32392	1207.68911	-269.70305	-341.66495	1187.90660	-231.42099	-480.12615	1393.02352	-871.23878	-563.99571	1294.69711	-851.94881	-535.28082	1307.58783	-912.45262	-415.28644	1220.21698	-891.41464	-330.42614	1172.33284	-846.25859	-351.77947	1137.36204	-865.77154	-565.66559	1083.72934	-486.37375	-569.06681	1078.79554	-676.95093	-558.62667	1089.12235	-486.87157	-555.14118	1084.45411	-638.50629	
217	2.16000000	-394.00076	708.57667	-383.57521	-416.24503	660.46681	-353.60349	-371.99270	301.69868	-377.01381	-427.42369	282.60378	-434.88923	-263.90334	203.15271	-346.17579	-213.54136	227.27170	-390.71895	-395.47609	694.63980	-763.81829	-354.12341	619.49354	-779.16375	-352.37742	293.15654	-761.46669	-412.44598	268.86726	-709.64778	-243.03683	195.98958	-775.48258	-198.75928	216.14983	-724.94076	-403.03281	544.95355	-341.85125	-344.92090	669.36367	-382.92175	-331.13125	555.10474	-382.76721	-441.31792	615.63405	-788.66696	-421.50915	495.21646	-793.01496	-425.18623	999.96223	-480.29991	-375.35983	903.05411	-458.54005	-383.88919	887.28500	-392.49451	-481.64385	991.87733	-386.35759	-434.43238	889.74527	-366.09835	-468.98819	1008.32693	-750.58655	-419.59669	876.41724	-770.06555	-573.16948	971.34720	-766.54373	-528.57096	837.67217	-755.77527	-471.66347	1139.13614	-455.29598	-650.74493	1184.57745	-539.97869	-464.91769	1118.59608	-684.28507	-648.23252	1181.40778	-637.32977	-436.41109	1623.45747	-584.89048	-383.77505	1565.57296	-425.88814	-387.33868	1557.51900	-734.97850	-377.00308	1487.27122	-575.08930	-369.39137	1493.12967	-590.11494	-477.45770	1385.43204	-287.79271	-563.77135	1299.10811	-302.17176	-531.04963	1317.14650	-243.95600	-409.10643	1241.61740	-240.54085	-323.71667	1193.87913	-268.21911	-336.06328	1173.92904	-230.01672	-474.88439	1376.33313	-871.59853	-558.94571	1277.71735	-852.25260	-530.63377	1291.15878	-913.09130	-410.11241	1204.48855	-893.34592	-324.88278	1156.63298	-848.97617	-345.94201	1122.10144	-868.83108	-551.40833	1062.69301	-486.34937	-554.23919	1057.85792	-676.93854	-544.59222	1068.58996	-486.52294	-540.67753	1063.65051	-638.19709	
218	2.17000000	-382.28027	685.65101	-382.75468	-404.54331	637.50541	-352.36179	-358.30501	278.75120	-375.32776	-413.01403	259.03871	-433.65011	-249.46346	181.07002	-343.69487	-199.15946	205.42263	-387.95881	-382.16411	671.97129	-764.88974	-340.42043	597.35301	-780.76857	-335.26867	270.86612	-764.07776	-395.14657	246.23943	-712.28761	-225.30652	173.65082	-777.47728	-181.22507	194.36890	-727.14224	-390.45459	521.73258	-340.63315	-332.95284	646.65681	-381.74356	-318.52743	532.60721	-381.40619	-427.50178	592.63526	-790.37505	-406.59982	472.29882	-795.12794	-411.07091	977.71967	-480.39763	-362.10587	880.18256	-458.42133	-370.82909	864.75954	-392.34446	-467.60335	970.23809	-386.20459	-421.36927	867.64706	-366.03832	-453.85958	986.16197	-749.99301	-404.85741	854.28338	-769.68722	-558.01207	949.84451	-767.45667	-514.14842	815.69523	-756.59560	-458.89432	1118.10726	-454.96103	-638.51244	1161.20443	-540.05806	-451.36722	1098.30449	-684.36356	-635.68605	1157.76833	-637.55032	-429.86041	1602.48335	-585.15638	-377.67655	1546.22113	-426.35544	-380.40960	1537.80984	-734.57598	-369.08602	1467.50567	-574.77031	-361.77137	1472.77394	-590.24601	-472.55486	1367.61737	-287.89987	-558.70224	1280.82950	-302.10923	-526.40514	1299.44243	-244.04239	-403.59467	1225.71606	-240.07825	-317.38065	1179.28722	-267.23603	-329.44759	1159.20768	-229.17477	-469.52859	1358.15549	-871.94819	-553.33652	1258.97543	-852.41209	-525.59807	1272.99143	-913.50538	-404.22909	1187.29698	-894.78291	-318.22517	1139.79819	-850.87589	-339.18538	1105.38788	-870.96952	-537.34884	1040.55591	-486.52696	-539.70955	1036.05636	-677.13059	-530.95995	1047.16091	-486.29674	-526.55654	1041.80674	-638.18842	
